# xmcd
#
# Track frame offsets:
#	150
#	4435
#	26907
#	51619
#	68491
#	91245
#	115095
#	139002
#	157322
#	180739
#	205893
#	230734
#	251772
#	279529
#	302670
#
# Disc length: 4281 seconds
#
# Revision: 1
# Processed by: cddbd v1.4PL0 Copyright (c) Steve Scherf et al.
# Submitted via: audiograbber 1.80.04
#
DISCID=de10b70f
DTITLE=Yoko Noge and the Jazz Me Blues Band - Struttin' with Yoko
DYEAR=1900
DGENRE=Jazz Blues
TTITLE0=Just a Closer Walk with Thee
TTITLE1=Hot House Blues II
TTITLE2=You Don't Have To Go
TTITLE3=Tuxedo Junction
TTITLE4=Rack 'Em Up
TTITLE5=Mama, He Treats Your Daughter Mean
TTITLE6=Stormy Monday Blues
TTITLE7=It Don't Mean A Thing
TTITLE8=Isezaki-cho Blues
TTITLE9=In a Mellow Tone
TTITLE10=I Confess
TTITLE11=Take the A Train
TTITLE12=After You've Gone
TTITLE13=On The Sunny Side Of The Street
TTITLE14=Yoko's Boogie
EXTD=www.jazzmebluesmusic.com\nTel: 708-386-5750\n\nJazz Me Blues Music\n528 Cl
EXTD=arence Ave.\nOak Park, IL\n60304\n\nYoko Noge - piano, vocals\nClark Dean 
EXTD=soprano saxophone\nSonny Seals - tenor saxophone\nJimmy Ellis - alto sax
EXTD=ophone\nJohn Watson - trombone, vocals\nElijah Levi - vocals\nTatsu Aoki -
EXTD=bass\nPhil Thomas - drums\nAvreeayl Ra - drums on track 10
EXTT0=
EXTT1=
EXTT2=
EXTT3=
EXTT4=
EXTT5=
EXTT6=
EXTT7=
EXTT8=
EXTT9=
EXTT10=
EXTT11=
EXTT12=
EXTT13=
EXTT14=
PLAYORDER=
